<svg xmlns="http://www.w3.org/2000/svg" viewBox="0 0 794.75 704.09"><defs><style>.cls-1{fill:#0a3d62;}</style></defs><g id="Layer_2" data-name="Layer 2"><g id="Layer_1-2" data-name="Layer 1"><path d="M790,313.2a70.18,70.18,0,0,0-4.53-9.42c-2.77-4.82-11-17.85-34.31-30.7-37.93-20.95-79.12-21.23-100.53-19.87,46.14,1.25,84.82,22.08,98.12,54.78.67,1.63,1.33,3.44,2,5.45a66.16,66.16,0,0,1-.32,39.2,302.71,302.71,0,0,1-16.07,40.83c-16.06,33.4-42,71.3-133.64,145.68-31,25.18-72.86,57.17-124.73,91.58V393.39a125.64,125.64,0,0,0-36.79-88.85l-84.87-84.86v-.36l-.18.18-.18-.18v.36L269.1,304.54a125.65,125.65,0,0,0-36.8,88.85v250.5a321.55,321.55,0,0,1-130-42.14,315.9,315.9,0,0,1-53.2-39.22,57.19,57.19,0,0,1-17.8-32.81l0-.21C22,473.83,72.36,427.35,80.6,420,64.9,429,26.78,454,8.36,501.82a149.71,149.71,0,0,0-5.88,19,90.24,90.24,0,0,0,3.33,52.88l.15.37c32.35,84.25,151.68,110.8,192.83,120a438.53,438.53,0,0,0,79.33,10.08V399.92a79.35,79.35,0,0,1,23.23-56.11L354.13,291l52.78,52.78a79.37,79.37,0,0,1,23.25,56.11l.18,298.51c51.09-10.66,158.71-89.82,196.85-123.17C723.87,490.72,766.06,448,786.11,382.63a269.44,269.44,0,0,0,7.41-30.42A71.77,71.77,0,0,0,790,313.2Z"/><path class="cls-1" d="M155.85,606V324.68l86.87-86.88v55.54a135.14,135.14,0,0,1,19.84-25.22L283.65,247V139L114.91,307.73V585.5A120.83,120.83,0,0,0,155.85,606Z"/><path class="cls-1" d="M460.44,285V68.56L591.86,139.4V514.47a203.46,203.46,0,0,0,28.7-21.68c4.49-4.05,8.56-8.09,12.24-12V115L419.51,0V241.52l26.59,26.6A136.89,136.89,0,0,1,460.44,285Z"/></g></g></svg>