<svg xmlns="http://www.w3.org/2000/svg" viewBox="0 0 794.75 894.29"><defs><style>.cls-1{fill:#0a3d62;}</style></defs><g id="Layer_2" data-name="Layer 2"><g id="Layer_1-2" data-name="Layer 1"><path d="M790,313.2a70.18,70.18,0,0,0-4.53-9.42c-2.77-4.82-11-17.85-34.31-30.7-37.93-20.95-79.12-21.23-100.53-19.87,46.14,1.25,84.82,22.08,98.12,54.78.67,1.63,1.33,3.44,2,5.45a66.16,66.16,0,0,1-.32,39.2,302.71,302.71,0,0,1-16.07,40.83c-16.06,33.4-42,71.3-133.64,145.68-31,25.18-72.86,57.17-124.73,91.58V393.39a125.64,125.64,0,0,0-36.79-88.85l-84.87-84.86v-.36l-.18.18-.18-.18v.36L269.1,304.54a125.65,125.65,0,0,0-36.8,88.85v250.5a321.55,321.55,0,0,1-130-42.14,315.9,315.9,0,0,1-53.2-39.22,57.19,57.19,0,0,1-17.8-32.81l0-.21C22,473.83,72.36,427.35,80.6,420,64.9,429,26.78,454,8.36,501.82a149.71,149.71,0,0,0-5.88,19,90.24,90.24,0,0,0,3.33,52.88l.15.37c32.35,84.25,151.68,110.8,192.83,120a438.53,438.53,0,0,0,79.33,10.08V399.92a79.35,79.35,0,0,1,23.23-56.11L354.13,291l52.78,52.78a79.37,79.37,0,0,1,23.25,56.11l.18,298.51c51.09-10.66,158.71-89.82,196.85-123.17C723.87,490.72,766.06,448,786.11,382.63a269.44,269.44,0,0,0,7.41-30.42A71.77,71.77,0,0,0,790,313.2Z"/><path class="cls-1" d="M155.85,606V324.68l86.87-86.88v55.54a135.14,135.14,0,0,1,19.84-25.22L283.65,247V139L114.91,307.73V585.5A120.83,120.83,0,0,0,155.85,606Z"/><path class="cls-1" d="M460.44,285V68.56L591.86,139.4V514.47a203.46,203.46,0,0,0,28.7-21.68c4.49-4.05,8.56-8.09,12.24-12V115L419.51,0V241.52l26.59,26.6A136.89,136.89,0,0,1,460.44,285Z"/><path d="M484.63,868.33l-34.26-84.14h18.87L495,850.54l26.33-66.35h18L504.7,868.33Z"/><path d="M557.47,869.41A27.06,27.06,0,0,1,545.69,867a19.46,19.46,0,0,1-8.05-6.79,17.53,17.53,0,0,1-2.89-10q0-9,6.73-14t18.75-5a46.34,46.34,0,0,1,15.39,2.52v-4.57c0-3.6-1.12-6.33-3.36-8.17s-5.53-2.77-9.86-2.77a33.22,33.22,0,0,0-8.54,1.27,71.93,71.93,0,0,0-10.57,3.9l-5.89-12.26a91.79,91.79,0,0,1,14.18-4.93A55.39,55.39,0,0,1,565,804.5q12.87,0,19.84,6.07t7,17.13v40.63H575.62v-4.45a26.2,26.2,0,0,1-8.29,4.21A34.59,34.59,0,0,1,557.47,869.41Zm-7.09-19.59a6.55,6.55,0,0,0,3.12,5.71,14.67,14.67,0,0,0,8.3,2.1,27.76,27.76,0,0,0,7.51-1,18.84,18.84,0,0,0,6.31-3.13v-9.13a26.64,26.64,0,0,0-6.25-1.87,42.49,42.49,0,0,0-7-.54c-3.77,0-6.71.69-8.84,2A6.48,6.48,0,0,0,550.38,849.82Z"/><path d="M604.35,868.33V784.19l16.47-2.77v86.91Z"/><path d="M633.8,868.33V784.19l16.47-2.77v86.91Z"/><path d="M693.9,869.53a33.72,33.72,0,0,1-29.09-16,30.82,30.82,0,0,1-4.45-16.4,32.29,32.29,0,0,1,4.27-16.41A31.81,31.81,0,0,1,676.23,809a31.3,31.3,0,0,1,16.23-4.33,29.65,29.65,0,0,1,16,4.39,30.87,30.87,0,0,1,11,12,36.25,36.25,0,0,1,4,17.31v4.33h-46.4a18.32,18.32,0,0,0,3.61,6.73,17,17,0,0,0,6.13,4.62,18.68,18.68,0,0,0,7.81,1.63,23.2,23.2,0,0,0,7.7-1.26,17.06,17.06,0,0,0,6.13-3.67l10.81,9.86a37.62,37.62,0,0,1-25.48,9ZM677,830.83h30.53a17.59,17.59,0,0,0-3.18-6.56,15.76,15.76,0,0,0-5.35-4.38,14.9,14.9,0,0,0-6.73-1.57,15.87,15.87,0,0,0-7,1.51,13.93,13.93,0,0,0-5.23,4.32A18.48,18.48,0,0,0,677,830.83Z"/><path d="M738,894.29c-1.45,0-2.83-.06-4.15-.18a11.66,11.66,0,0,1-3.19-.66V879.39a27,27,0,0,0,5.65.48q9,0,12.5-8.54l1-2.52L725.39,805.7h18.28l15.62,42.68,17.55-42.68h17.79l-28.85,67.56a49.82,49.82,0,0,1-7.09,12.2,23.19,23.19,0,0,1-8.83,6.73A30.44,30.44,0,0,1,738,894.29Z"/><path class="cls-1" d="M49,869.53a46.44,46.44,0,0,1-17.55-3.3A43.76,43.76,0,0,1,17.25,857a42.81,42.81,0,0,1-9.5-13.76,44,44,0,0,1,0-34,43.08,43.08,0,0,1,9.56-13.83,44.2,44.2,0,0,1,14.24-9.25A46,46,0,0,1,49,782.86a47.27,47.27,0,0,1,13.47,1.93,48.91,48.91,0,0,1,12.08,5.41,37.9,37.9,0,0,1,9.55,8.41L72.36,810.15a28.74,28.74,0,0,0-10.46-8.47A29.73,29.73,0,0,0,49,798.85a26.38,26.38,0,0,0-24.76,16.47,28.35,28.35,0,0,0-2,10.94A27.49,27.49,0,0,0,24.34,837a26.88,26.88,0,0,0,5.77,8.65,25.88,25.88,0,0,0,8.66,5.71,28.75,28.75,0,0,0,11,2,28.29,28.29,0,0,0,12.38-2.76,29.93,29.93,0,0,0,10.1-7.93L83.54,854a39.83,39.83,0,0,1-9.43,8.3,45.58,45.58,0,0,1-12,5.35A47.28,47.28,0,0,1,49,869.53Z"/><path class="cls-1" d="M112.51,869.41A27.06,27.06,0,0,1,100.73,867a19.46,19.46,0,0,1-8-6.79,17.53,17.53,0,0,1-2.89-10q0-9,6.73-14t18.75-5a46.34,46.34,0,0,1,15.39,2.52v-4.57c0-3.6-1.12-6.33-3.36-8.17s-5.53-2.77-9.86-2.77a33.22,33.22,0,0,0-8.54,1.27,71.93,71.93,0,0,0-10.57,3.9l-5.89-12.26a91.79,91.79,0,0,1,14.18-4.93,55.39,55.39,0,0,1,13.46-1.68q12.87,0,19.84,6.07t7,17.13v40.63H130.66v-4.45a26.2,26.2,0,0,1-8.29,4.21A34.59,34.59,0,0,1,112.51,869.41Zm-7.09-19.59a6.55,6.55,0,0,0,3.12,5.71,14.67,14.67,0,0,0,8.3,2.1,27.76,27.76,0,0,0,7.51-1,18.84,18.84,0,0,0,6.31-3.13v-9.13a26.64,26.64,0,0,0-6.25-1.87,42.49,42.49,0,0,0-7-.54c-3.77,0-6.71.69-8.84,2A6.48,6.48,0,0,0,105.42,849.82Z"/><path class="cls-1" d="M159.39,892.85V805.7h16.23v5.17a27.77,27.77,0,0,1,17.79-6,29.81,29.81,0,0,1,16.1,4.21A32.39,32.39,0,0,1,221,820.67a31.78,31.78,0,0,1,4.27,16.41,31.15,31.15,0,0,1-4.33,16.28,32.1,32.1,0,0,1-28,15.81,30.53,30.53,0,0,1-9.08-1.32,32,32,0,0,1-8-3.73v28.73Zm31.37-37.62a18.55,18.55,0,0,0,9.32-2.35,17.1,17.1,0,0,0,6.55-6.55,18.33,18.33,0,0,0,2.4-9.25,17.72,17.72,0,0,0-8.95-15.75,18.28,18.28,0,0,0-9.32-2.41,23,23,0,0,0-8.41,1.51,16.36,16.36,0,0,0-6.49,4.51v24.4a18.27,18.27,0,0,0,6.55,4.32A22.11,22.11,0,0,0,190.76,855.23Z"/><path class="cls-1" d="M243.41,798.25a9,9,0,0,1-6.61-2.76,9.19,9.19,0,0,1-2.76-6.74,8.85,8.85,0,0,1,2.76-6.55,9.51,9.51,0,0,1,13.28,0,8.92,8.92,0,0,1,2.71,6.55,9.26,9.26,0,0,1-2.71,6.74A9,9,0,0,1,243.41,798.25Zm-8.17,70.08V805.7h16.47v62.63Z"/><path class="cls-1" d="M294.26,869.29q-10.35,0-15.69-4.75t-5.35-13.88V819.53H260.36V805.7h12.86v-16L289.57,786V805.7h18v13.83h-18v27.76q0,4.34,2,6.19t6.67,1.87a30.32,30.32,0,0,0,4.51-.3,31,31,0,0,0,4.39-1v13.47a33.82,33.82,0,0,1-6.25,1.32A52.5,52.5,0,0,1,294.26,869.29Z"/><path class="cls-1" d="M335.61,869.41A27.06,27.06,0,0,1,323.83,867a19.56,19.56,0,0,1-8.06-6.79,17.6,17.6,0,0,1-2.88-10q0-9,6.73-14t18.75-5a46.34,46.34,0,0,1,15.39,2.52v-4.57c0-3.6-1.13-6.33-3.37-8.17s-5.53-2.77-9.86-2.77a33.21,33.21,0,0,0-8.53,1.27,72,72,0,0,0-10.58,3.9l-5.89-12.26a92.26,92.26,0,0,1,14.19-4.93,55.33,55.33,0,0,1,13.46-1.68q12.85,0,19.83,6.07t7,17.13v40.63H353.76v-4.45a26.25,26.25,0,0,1-8.3,4.21A34.52,34.52,0,0,1,335.61,869.41Zm-7.1-19.59a6.54,6.54,0,0,0,3.13,5.71,14.63,14.63,0,0,0,8.29,2.1,27.84,27.84,0,0,0,7.52-1,18.93,18.93,0,0,0,6.31-3.13v-9.13a26.79,26.79,0,0,0-6.25-1.87,42.62,42.62,0,0,0-7-.54c-3.76,0-6.71.69-8.83,2A6.49,6.49,0,0,0,328.51,849.82Z"/><path class="cls-1" d="M382.48,868.33V784.19L399,781.42v86.91Z"/></g></g></svg>