<svg xmlns="http://www.w3.org/2000/svg" viewBox="0 0 457.56 90.07"><defs><style>.cls-1{fill:#231f20;}.cls-2{fill:#175377;}</style></defs><g id="Layer_2" data-name="Layer 2"><g id="Layer_1-2" data-name="Layer 1"><path class="cls-1" d="M101.06,40.06a11,11,0,0,0-.58-1.2,10.7,10.7,0,0,0-4.39-3.93,23.92,23.92,0,0,0-12.86-2.54c5.9.16,10.85,2.83,12.55,7,.09.21.17.44.26.7a8.47,8.47,0,0,1,0,5,39,39,0,0,1-2.06,5.22c-2,4.28-5.37,9.12-17.1,18.64-4,3.22-9.32,7.31-16,11.71V50.32A16,16,0,0,0,56.18,39L45.33,28.1v0l0,0,0,0v0L34.42,39a16.07,16.07,0,0,0-4.7,11.36V82.37A41.3,41.3,0,0,1,13.09,77a40.82,40.82,0,0,1-6.81-5A7.32,7.32,0,0,1,4,67.76v0c-1.19-7.13,5.26-13.07,6.31-14A21.14,21.14,0,0,0,1.07,64.19a19.44,19.44,0,0,0-.75,2.43,11.59,11.59,0,0,0,.42,6.77l0,0C4.9,84.21,20.17,87.61,25.43,88.79a55.92,55.92,0,0,0,10.15,1.28V51.16a10.17,10.17,0,0,1,3-7.18l6.75-6.76L52.05,44a10.11,10.11,0,0,1,3,7.17l0,38.19C61.58,88,75.35,77.85,80.23,73.58,92.6,62.77,98,57.31,100.56,49a34.63,34.63,0,0,0,1-3.9A9.23,9.23,0,0,0,101.06,40.06Z"/><path class="cls-2" d="M19.94,77.52v-36L31.05,30.42v7.1a17.15,17.15,0,0,1,2.54-3.22l2.69-2.7V17.78L14.7,39.36V74.9A15.37,15.37,0,0,0,19.94,77.52Z"/><path class="cls-2" d="M58.9,36.46V8.77l16.81,9.06v48A26,26,0,0,0,79.38,63c.58-.52,1.1-1,1.57-1.54V14.71L53.66,0V30.9l3.41,3.4A18,18,0,0,1,58.9,36.46Z"/><path class="cls-1" d="M140.58,78.44a20.8,20.8,0,0,1-8-1.52,20.13,20.13,0,0,1-6.48-4.27,19,19,0,0,1-4.32-6.37,21,21,0,0,1,0-15.73,18.81,18.81,0,0,1,4.32-6.34A20.13,20.13,0,0,1,132.61,40a20.68,20.68,0,0,1,8-1.52,22.13,22.13,0,0,1,6,.8,20.78,20.78,0,0,1,5.37,2.3,18,18,0,0,1,4.35,3.65l-3.93,3.94a14,14,0,0,0-5.26-4,15.94,15.94,0,0,0-6.49-1.36,14.38,14.38,0,0,0-5.7,1.11,14.15,14.15,0,0,0-7.62,7.75,15.9,15.9,0,0,0,0,11.52,14.11,14.11,0,0,0,3,4.66A13.89,13.89,0,0,0,135,72a14.85,14.85,0,0,0,5.73,1.11,15.24,15.24,0,0,0,6.43-1.39,14.67,14.67,0,0,0,5.15-3.82l3.83,3.88a20.42,20.42,0,0,1-4.35,3.57,20.92,20.92,0,0,1-5.32,2.33A21.67,21.67,0,0,1,140.58,78.44Z"/><path class="cls-1" d="M170.17,78.33a12.77,12.77,0,0,1-5.43-1.08,8.89,8.89,0,0,1-3.66-3,7.71,7.71,0,0,1-1.33-4.48,7.38,7.38,0,0,1,3.08-6.27c2-1.51,4.82-2.27,8.33-2.27a19.19,19.19,0,0,1,7.65,1.5V59.77a5.72,5.72,0,0,0-1.72-4.54,7.54,7.54,0,0,0-5.1-1.5,14.75,14.75,0,0,0-4,.59,29,29,0,0,0-4.68,1.8L161.19,52a33.16,33.16,0,0,1,6-2.19,23.37,23.37,0,0,1,5.62-.69q5.49,0,8.5,2.61c2,1.73,3,4.21,3,7.42V77.83h-5.48V75.4a12.65,12.65,0,0,1-4,2.21A14.62,14.62,0,0,1,170.17,78.33ZM165,69.58A4,4,0,0,0,166.79,73a7.67,7.67,0,0,0,4.59,1.27,12.28,12.28,0,0,0,4.1-.66,9.25,9.25,0,0,0,3.33-2V66.75a13.25,13.25,0,0,0-3.33-1.33,16,16,0,0,0-3.82-.44,8.19,8.19,0,0,0-4.87,1.28A3.88,3.88,0,0,0,165,69.58Z"/><path class="cls-1" d="M190.72,89.13V49.64h5.48v2.71a12.64,12.64,0,0,1,8.64-3.16,13.83,13.83,0,0,1,7.23,1.94,14.25,14.25,0,0,1,5.13,5.24,15.37,15.37,0,0,1,0,14.73,14.11,14.11,0,0,1-12.52,7.18,13.85,13.85,0,0,1-4.46-.72,14,14,0,0,1-4-2.11V89.13Zm13.4-15.67A9.44,9.44,0,0,0,209,72.21a9.28,9.28,0,0,0,3.41-3.46A10,10,0,0,0,209,55.26a9.1,9.1,0,0,0-4.85-1.3,10.77,10.77,0,0,0-4.43.91,9.68,9.68,0,0,0-3.43,2.52V70.13a10.27,10.27,0,0,0,3.46,2.41A10.78,10.78,0,0,0,204.12,73.46Z"/><path class="cls-1" d="M227.11,45a3.28,3.28,0,0,1-2.38-1,3.34,3.34,0,0,1-1-2.44,3.41,3.41,0,0,1,3.38-3.38,3.41,3.41,0,0,1,3.44,3.44,3.23,3.23,0,0,1-1,2.38A3.34,3.34,0,0,1,227.11,45Zm-2.77,32.79V49.64h5.54V77.83Z"/><path class="cls-1" d="M248.44,78.33a9.19,9.19,0,0,1-6.2-1.88,7,7,0,0,1-2.16-5.6V54.29h-6V49.64h6V42.49l5.48-1.39v8.54h8.37v4.65h-8.37V69.63a4,4,0,0,0,1,3,4.57,4.57,0,0,0,3.19.92,10.85,10.85,0,0,0,4-.72v4.71a13.72,13.72,0,0,1-2.58.58A20.83,20.83,0,0,1,248.44,78.33Z"/><path class="cls-1" d="M266.94,78.33a12.8,12.8,0,0,1-5.43-1.08,8.79,8.79,0,0,1-3.65-3,7.71,7.71,0,0,1-1.33-4.48,7.37,7.37,0,0,1,3.07-6.27q3.07-2.26,8.34-2.27a19.19,19.19,0,0,1,7.65,1.5V59.77a5.72,5.72,0,0,0-1.72-4.54,7.57,7.57,0,0,0-5.1-1.5,14.75,14.75,0,0,0-4,.59,29.38,29.38,0,0,0-4.69,1.8L258,52a33.08,33.08,0,0,1,5.95-2.19,23.45,23.45,0,0,1,5.63-.69c3.65,0,6.49.87,8.5,2.61a9.27,9.27,0,0,1,3,7.42V77.83h-5.48V75.4a12.65,12.65,0,0,1-4,2.21A14.63,14.63,0,0,1,266.94,78.33Zm-5.15-8.75A4,4,0,0,0,263.56,73a7.72,7.72,0,0,0,4.6,1.27,12.28,12.28,0,0,0,4.1-.66,9.33,9.33,0,0,0,3.33-2V66.75a13.4,13.4,0,0,0-3.33-1.33,16,16,0,0,0-3.82-.44,8.24,8.24,0,0,0-4.88,1.28A3.9,3.9,0,0,0,261.79,69.58Z"/><path class="cls-1" d="M287.5,77.83V39.05L293,38V77.83Z"/><path class="cls-1" d="M323.73,77.83,307.88,39.05h6.37l13.08,33.08,13.35-33.08h6L330.59,77.83Z"/><path class="cls-1" d="M355.58,78.33a12.77,12.77,0,0,1-5.43-1.08,8.89,8.89,0,0,1-3.66-3,7.78,7.78,0,0,1-1.33-4.48,7.38,7.38,0,0,1,3.08-6.27q3.08-2.26,8.34-2.27a19.14,19.14,0,0,1,7.64,1.5V59.77a5.69,5.69,0,0,0-1.72-4.54,7.53,7.53,0,0,0-5.09-1.5,14.76,14.76,0,0,0-4,.59,29.3,29.3,0,0,0-4.68,1.8L346.6,52a33.16,33.16,0,0,1,6-2.19,23.37,23.37,0,0,1,5.62-.69c3.66,0,6.49.87,8.51,2.61a9.26,9.26,0,0,1,3,7.42V77.83h-5.48V75.4a12.65,12.65,0,0,1-4,2.21A14.62,14.62,0,0,1,355.58,78.33Zm-5.15-8.75A4,4,0,0,0,352.2,73a7.68,7.68,0,0,0,4.6,1.27,12.37,12.37,0,0,0,4.1-.66,9.29,9.29,0,0,0,3.32-2V66.75a13.18,13.18,0,0,0-3.32-1.33,16.1,16.1,0,0,0-3.83-.44,8.21,8.21,0,0,0-4.87,1.28A3.9,3.9,0,0,0,350.43,69.58Z"/><path class="cls-1" d="M376.13,77.83V39.05l5.54-1V77.83Z"/><path class="cls-1" d="M388.21,77.83V39.05l5.54-1V77.83Z"/><path class="cls-1" d="M413.8,78.33a15,15,0,0,1-7.51-1.91A14.48,14.48,0,0,1,401,71.16a15,15,0,0,1-.09-14.82A14.88,14.88,0,0,1,406,51.1a13.51,13.51,0,0,1,7.2-2,12.63,12.63,0,0,1,6.95,2A14.15,14.15,0,0,1,425,56.42a15.75,15.75,0,0,1,1.8,7.56v1.5H404.55a9.65,9.65,0,0,0,1.69,4.18,9.47,9.47,0,0,0,3.35,2.88A9.36,9.36,0,0,0,414,73.62a12,12,0,0,0,4-.66,9.73,9.73,0,0,0,3.16-1.78l3.49,3.44a17,17,0,0,1-5,2.8A17.85,17.85,0,0,1,413.8,78.33Zm-9.2-17h16.73a9.47,9.47,0,0,0-1.58-3.85,8.82,8.82,0,0,0-2.9-2.65,7.63,7.63,0,0,0-3.83-1,7.88,7.88,0,0,0-3.87,1,8.71,8.71,0,0,0-3,2.63A9.35,9.35,0,0,0,404.6,61.32Z"/><path class="cls-1" d="M433.08,89.69a14,14,0,0,1-1.61-.09l-1.27-.13V84.54a11.86,11.86,0,0,0,2.43.22c2.55,0,4.44-1.39,5.65-4.16l1.17-2.66-11.3-28.3h6.09l8.26,21.43,9.08-21.43h6L443.94,81.32a20.4,20.4,0,0,1-2.86,4.88,9.34,9.34,0,0,1-3.43,2.66A11.51,11.51,0,0,1,433.08,89.69Z"/></g></g></svg>